<svg xmlns="http://www.w3.org/2000/svg" width="612" height="792" viewBox="0 0 612 792"><path d="M28.152 555.12c-.408.814-1.428 1.224-3.06 1.224h-1.836c-2.04-1.224-3.06-2.65-3.06-4.284V307.872c0-2.04.816-3.468 2.448-4.284 1.632-.408 3.264-.408 4.896 0l162.792 93.024c1.632.814 2.448 2.04 2.448 3.672 0 2.04-.612 3.264-1.836 3.672L28.152 555.12zm547.128 67.32c1.224 1.632 1.632 3.264 1.224 4.896-1.224 2.04-2.854 3.062-4.896 3.062H39.168c-2.856 0-5.916-1.02-9.18-3.062-1.632-.816-2.448-2.04-2.448-3.672s.612-2.856 1.836-3.672l207.468-192.78c1.632-1.632 3.468-1.836 5.508-.612l55.08 31.214c7.752 4.486 15.708 4.486 23.868 0l62.424-36.722c2.448-1.632 4.284-1.428 5.51.612L575.28 622.44zm18.972-322.524c1.632.816 2.448 2.244 2.448 4.284v258.264c0 2.04-1.02 3.468-3.062 4.284-.406.408-1.02.612-1.836.612-1.224 0-2.446-.612-3.672-1.836L433.296 398.448c-1.224-1.226-1.632-2.448-1.224-3.672 0-1.632.61-2.856 1.836-3.672l155.447-91.188c1.225-1.224 2.857-1.224 4.897 0zm-17.136-138.312c5.712 0 10.403 1.836 14.076 5.508 3.672 3.672 5.508 8.16 5.508 13.464v58.752c0 2.856-1.43 4.284-4.284 4.284-2.448.408-4.692 1.428-6.732 3.06L311.508 407.628c-.408.408-1.224.612-2.448.612s-2.04-.204-2.446-.612L23.868 246.672c-2.448-1.632-3.672-3.264-3.672-4.896v-61.2c0-5.304 1.836-9.792 5.508-13.464 3.672-3.672 8.16-5.508 13.464-5.508h537.948z"/></svg>