<svg xmlns="http://www.w3.org/2000/svg" width="612" height="792" viewBox="0 0 612 792"><path d="M597.312 552.672c1.224 9.384-1.634 17.544-8.568 24.48l-81.396 80.782c-3.672 4.08-8.466 7.55-14.382 10.404-5.916 2.856-11.73 4.692-17.44 5.508-.408 0-1.634.104-3.674.308-2.038.204-4.69.306-7.954.306-7.753 0-20.3-1.326-37.64-3.978s-38.556-9.182-63.646-19.584c-25.094-10.404-53.552-26.012-85.375-46.818s-65.688-49.368-101.592-85.68c-28.56-28.152-52.224-55.08-70.992-80.784s-33.864-49.47-45.288-71.298C47.94 344.49 39.372 324.702 33.66 306.954s-9.588-33.048-11.628-45.9c-2.04-12.852-2.856-22.95-2.448-30.294.408-7.344.612-11.424.612-12.24.816-5.712 2.652-11.526 5.508-17.442s6.324-10.71 10.404-14.382l81.396-81.396c5.712-5.712 12.24-8.568 19.584-8.568 5.304 0 9.996 1.53 14.076 4.59s7.548 6.834 10.404 11.322l65.484 124.236c3.672 6.528 4.692 13.668 3.06 21.42-1.632 7.752-5.1 14.28-10.404 19.584l-29.988 29.988c-.816.816-1.53 2.142-2.142 3.978-.612 1.836-.918 3.366-.918 4.59 1.632 8.568 5.304 18.36 11.016 29.376 4.896 9.792 12.444 21.726 22.644 35.802 10.2 14.076 24.684 30.294 43.452 48.653 18.36 18.77 34.68 33.355 48.96 43.76 14.278 10.402 26.214 18.054 35.802 22.95 9.588 4.896 16.932 7.854 22.032 8.872l7.648 1.53c.816 0 2.144-.306 3.98-.918s3.16-1.326 3.977-2.142l34.885-35.496c7.346-6.528 15.912-9.792 25.704-9.792 6.937 0 12.443 1.224 16.523 3.672h.612l118.114 69.768c8.57 5.306 13.67 12.038 15.302 20.198z"/></svg>