<svg width="100" height="100" viewBox="0 0 100 100" xmlns="http://www.w3.org/2000/svg"><title>work</title><desc>Created with Sketch.</desc><g transform="translate(0 0)" fill="none"><circle fill="#9FAF90" cx="50" cy="50" r="50"/><g transform="translate(22.523 22.523)" fill="#fff"><ellipse cx="41.684" cy="6.774" rx="6.774" ry="6.774"/><path d="M27.238 42.735v-1.672c0-1.353.66-2.66 1.742-3.495V31.85h-6.254c-2.417 0-4.36-1.91-4.36-4.324 0-.394.178-.72.178-1.085v-1.547h.728c.803-1.16 2.05-1.74 3.454-1.74h5.733c.06-.29.23-.387.23-.617V7.02c0-1.297-1.195-2.424-2.488-2.424H6.882c-1.295 0-2.256 1.127-2.256 2.423v15.518c0 1.295.96 2.356 2.256 2.356h7.892v2.03H12.12c-1.164 0-2.108.868-2.108 2.318H.992c-.6 0-1.006.337-1.006.94v2.455c0 .6.403.953 1.005.953h3.054v22.035h25.514V45.7c.002 0-2.32-.49-2.32-2.965zM10.29 21.415c-1.292 0-2.475-.925-2.475-2.216v-8.84c0-1.294 1.183-2.284 2.476-2.284h12.566c1.295 0 2.356.99 2.356 2.285v8.84c0 1.29-1.06 2.214-2.356 2.214H10.29zM45.67 14.833H36.71c-5.495 0-5.842 5.5-5.842 5.5s-.734 3.708-1.344 4.134c-.187.13-.407.225-.664.225H22.72c-1.45 0-2.628 1.155-2.628 2.61 0 1.452 1.177 2.61 2.63 2.61h6.136c.953 0 1.795 0 1.908-.026l-.056 6.405h3.486V22.12c0-2.855 1.838-6.126 4.723-6.126h10.687c-1.063-.87-2.44-1.16-3.936-1.16zM52.436 43.737c1.934 0 3.507-1.57 3.507-3.507V22.236c0-2.166-1.834-4.013-4-4.013H39.8c-2.167 0-3.86 1.847-3.86 4.013V38.23h-3.915c-1.505 0-2.755 1.157-2.755 2.662v.988c0 1.024.83 1.853 1.856 1.853h8.294v2.32h-1.328s-3.31.08-3.31 3.158v4.417c0 .997.742 1.808 1.744 1.808 1 0 1.782-.818 1.782-1.817l-.028-4.084h6.068v4.093c0 .997.88 1.808 1.883 1.808 1.005 0 1.886-.81 1.886-1.808V49.21c0-3.345-3.553-3.157-3.553-3.157h-1.38v-2.318h9.253v.002z"/></g></g></svg>