<svg width="100" height="100" viewBox="0 0 100 100" xmlns="http://www.w3.org/2000/svg"><title>family</title><desc>Created with Sketch.</desc><g transform="translate(0 0)" fill="none"><circle fill="#7C77B9" cx="50" cy="50" r="50"/><g transform="translate(22.581 16.667)" fill="#fff"><ellipse id="Oval" cx="18.108" cy="6.818" rx="6.818" ry="6.818"/><ellipse id="Oval" cx="35.85" cy="6.818" rx="6.818" ry="6.818"/><path d="M41.633 52.05c-.07.005-.14.01-.213.01-1.456 0-2.642-1.187-2.642-2.644 0-8.255 5.18-11.69 5.4-11.833.05-.032.098-.06.147-.084l.007-.005-.02-.094c-1.136-.964-1.862-2.398-1.862-4 0-.773.172-1.503.472-2.163-.11-.467-.206-.867-.28-1.172v-5.1c.59 1.23 1.048 2.77 1.317 4.757.952-.97 2.278-1.575 3.742-1.575.48 0 .946.07 1.39.192-1.24-7.624-5.01-10.628-8.864-12.992-.134-.082-.276-.146-.418-.202-.76-.502-1.613-.87-2.483-1.078-.005 0-.01 0-.016-.002l-1.646 1.728-1.698-1.71c-.945.232-1.868.654-2.675 1.23-.022.012-.048.02-.07.034-1.512.926-3.01 1.95-4.345 3.312-1.332-1.42-2.87-2.53-4.458-3.504-.233-.144-.482-.234-.735-.297-.62-.35-1.288-.61-1.965-.777l-1.698 1.71-1.648-1.728-.017.003c-.868.208-1.72.575-2.48 1.077-.144.056-.286.12-.42.203-4.042 2.478-7.73 5.887-8.4 13.39.72-.376 1.536-.592 2.403-.592 1.06 0 2.047.32 2.87.87.126-1.32.37-2.442.713-3.404v3.978c.99.946 1.61 2.275 1.61 3.75 0 1.32-.503 2.525-1.32 3.442.03.09.057.18.092.265-.018.137-.03.276-.03.418v.303l.075.06c.957.71 5.067 4.184 5.067 11.49 0 1.445-1.175 2.622-2.62 2.622-.554 0-1.066-.172-1.49-.465l-.06.14v12.7c0 .235-.03.462-.08.68.57.582 1.36.945 2.237.945 1.73 0 3.13-1.4 3.13-3.13l-.004-21.75c.123.006.246.015.372.015l.073-.003v21.74c0 1.727 1.4 3.128 3.128 3.128 1.728 0 3.128-1.4 3.128-3.128v-25.19c.04-.076.08-.152.117-.23.04.002.077.012.116.012h.037c.784-.012 1.48-.364 1.958-.912.17.152.36.28.565.385-1.096 4.956-2.317 10.754-2.322 12.023-.006 1.04 1.87 1.932 4.516 2.493v11.42c0 1.727 1.4 3.127 3.128 3.127 1.728 0 3.13-1.4 3.13-3.13V52.026h.442V62.81c0 1.73 1.4 3.13 3.127 3.13 1.73 0 3.13-1.4 3.13-3.128v-5.214h-1.64l.983-5.548z" id="Shape"/><ellipse id="Oval" cx="7.753" cy="33.022" rx="3.99" ry="3.99"/><path d="M14.232 50.658c.784 0 1.418-.635 1.418-1.42 0-6.836-3.803-9.958-4.62-10.55-.277-.248-.634-.494-1.11-.753-.364-.203-.753-.356-1.15-.454l-.994 1.002-.965-1.013-.008.003c-.62.147-1.22.44-1.73.84-.042.022-.085.04-.126.065C4.75 38.504.168 41.545.168 49.04c0 .785.634 1.42 1.42 1.42.78 0 1.417-.635 1.417-1.42 0-1.702.284-3.098.686-4.235v4.95c0 .418.082.807.225 1.164-.012.08-.02.162-.02.245l.002 13.07c0 1.012.82 1.832 1.83 1.83 1.012 0 1.83-.818 1.83-1.83V53.27c.073.004.145.01.218.01l.043-.002v10.96c0 1.01.82 1.83 1.83 1.83 1.01 0 1.83-.82 1.83-1.83l.002-12.98c.24-.444.38-.947.38-1.5v-5.43c.54 1.24.952 2.853.952 4.913 0 .783.635 1.418 1.42 1.418z" id="Shape"/><ellipse cx="47.598" cy="33.082" rx="4.049" ry="4.049"/><path d="M51.055 38.827c-.28-.25-.64-.5-1.124-.764-.368-.205-.765-.36-1.167-.46l-1.01 1.016-.977-1.028c-.003.002-.007.003-.01.003-.63.15-1.238.448-1.754.854-.044.02-.088.038-.13.065-.198.127-4.85 3.214-4.85 10.82 0 .796.645 1.44 1.44 1.44.796 0 1.44-.643 1.44-1.44 0-1.727.29-3.144.697-4.297v2.955l-1.472 8.323h1.68v8.44c0 1.026.832 1.86 1.858 1.858 1.027 0 1.857-.832 1.857-1.858v-8.44h.264v8.44c0 1.026.83 1.858 1.858 1.858 1.026 0 1.858-.832 1.858-1.858v-8.44h1.847l-1.46-8.253v-3.515c.547 1.26.967 2.897.967 4.988 0 .795.643 1.44 1.44 1.44.795 0 1.44-.645 1.44-1.44 0-6.94-3.86-10.108-4.692-10.71z"/></g></g></svg>