<svg width="100" height="100" viewBox="0 0 100 100" xmlns="http://www.w3.org/2000/svg"><title>health</title><desc>Created with Sketch.</desc><g transform="translate(0 0)" fill="none"><circle fill="#0C7489" cx="50" cy="50" r="50"/><g fill="#fff"><path d="M50.143 67.165c-.183.48-.64.8-1.15.803-.518 0-.974-.31-1.164-.785L38.51 43.92l-3.336 6.91c-.207.43-.642.703-1.118.703H26.04c.09.157.16.31.256.468l2.164 3.143c.538.7 1.12 1.392 1.757 2.087 7.24 7.86 12.224 13.682 15.31 17.42 2.224 2.7 5.725 2.734 7.956.04 2.95-3.584 7.65-9.123 14.372-16.508l-14.286.003-3.427 8.98zM62.76 22.932c-3.743.008-7.16 1.46-9.722 3.822-2.564 2.382-4.61 2.382-7.187.013-2.57-2.356-5.98-3.796-9.73-3.782-5.783.006-10.76 3.44-13.048 8.383-1.47 3.183-1.247 9.03-.31 12.41.45 1.618 1.114 3.46 2.03 5.39.166-.08.346-.137.543-.137h7.946l4.223-8.74c.215-.446.725-.734 1.16-.703.493.018.927.324 1.112.783l9.183 22.93 2.598-6.814c.185-.483.647-.802 1.162-.802h16.064c.335 0 .638.137.86.353.38-.522.834-1.157 1.284-1.792 1.166-1.63 3.58-5.407 4.707-8.726 1.576-4.66 1.576-8.096 1.576-8.096-.017-8.022-6.49-14.51-14.45-14.492z"/></g></g></svg>