<svg width="480" height="480" viewBox="0 0 480 480" xmlns="http://www.w3.org/2000/svg"><title>square</title><desc>Created with Sketch.</desc><g transform="translate(2 2)" fill="none"><g><path d="M138.905 128L121 116.5l17.905-11.5v23z" fill="#865E5E"/><text font-family="Arial" font-size="12" fill="#000" transform="translate(121 105)"><tspan x="20" y="16">ОБРАТНО</tspan></text></g><circle stroke="#979797" stroke-width="3" stroke-dasharray="9" opacity=".289" fill="#fff" cx="238" cy="238" r="238"/><g id="Group"><path stroke="#979797" stroke-width="2" d="M116 125h245v245H116z"/><text font-family="Arial" font-size="16" fill="#000" transform="translate(41 69)"><tspan x="129" y="325">ЗДОРОВЬЕ</tspan></text><text font-family="Arial" font-size="34" font-weight="bold" fill="#000" transform="translate(41 69)"><tspan x="95" y="186">ПРОБЛЕМЫ</tspan></text><text font-family="Arial" font-size="16" fill="#000" transform="translate(41 69)"><tspan x="192" y="51">ЭМОЦИИ</tspan></text><text font-family="Arial" font-size="16" fill="#000" transform="translate(41 69)"><tspan x="0" y="134">РАБОТА</tspan></text><text font-family="Arial" font-size="16" fill="#000" transform="translate(41 69)"><tspan x="330" y="233">СЕМЬЯ</tspan></text><g transform="translate(41 69) translate(18 237)"><circle id="Oval-7" fill="#865E5E" cx="55.5" cy="55.5" r="55.5"/><g id="Group" fill="#fff"><path d="M55.66 74.553c-.204.534-.71.887-1.277.89-.575 0-1.08-.342-1.293-.87L42.747 48.75l-3.704 7.67c-.23.48-.713.78-1.24.78h-8.9c.1.176.18.346.286.522l2.4 3.487c.597.776 1.244 1.543 1.95 2.315 8.036 8.726 13.57 15.187 16.996 19.337 2.468 2.997 6.354 3.034 8.83.044C62.64 78.928 67.86 72.78 75.32 64.582l-15.86.003-3.8 9.968zM69.664 25.455c-4.155.008-7.948 1.62-10.792 4.242-2.846 2.644-5.116 2.644-7.977.014-2.854-2.614-6.64-4.212-10.802-4.196-6.42.006-11.944 3.816-14.483 9.305-1.63 3.53-1.384 10.02-.343 13.775.497 1.795 1.235 3.84 2.253 5.98.183-.09.383-.15.602-.15h8.82l4.686-9.704c.24-.493.805-.813 1.288-.778.547.02 1.03.36 1.234.868l10.193 25.452 2.884-7.563c.206-.537.718-.89 1.29-.89h17.83c.373 0 .71.15.956.39.423-.578.925-1.283 1.425-1.988 1.294-1.81 3.973-6.002 5.224-9.686 1.75-5.173 1.75-8.985 1.75-8.985-.018-8.904-7.203-16.107-16.038-16.085z" id="Shape"/></g></g><g transform="translate(41 69) translate(265)"><circle fill="#865E5E" cx="55.5" cy="55.5" r="55.5"/><path d="M26.492 26.49c-16.01 16.01-16.008 42.055 0 58.065 16.006 16.007 42.052 16.007 58.06-.004 16.01-16.005 16.007-42.05.002-58.055-16.01-16.01-42.056-16.01-58.062-.005zm53.583 53.585c-13.537 13.537-35.568 13.54-49.104.003-13.54-13.54-13.54-35.572 0-49.11 13.537-13.536 35.566-13.537 49.107.003 13.538 13.538 13.536 35.568-.002 49.105zm-5.99-8.324c.508 1.178-.033 2.545-1.21 3.054-1.177.51-2.543-.033-3.052-1.21-2.24-5.176-7.53-8.52-13.48-8.52-6.09 0-11.414 3.342-13.56 8.515-.373.89-1.236 1.43-2.145 1.43-.298 0-.6-.056-.89-.177-1.185-.493-1.746-1.85-1.253-3.035 2.87-6.912 9.877-11.378 17.848-11.378 7.803 0 14.768 4.444 17.742 11.32zM37.417 43.635c-.523-.91-.21-2.07.7-2.593l7-4.02c.91-.522 2.07-.208 2.594.702.525.91.21 2.07-.7 2.593l-7 4.02c-.91.522-2.07.21-2.593-.7zm10.86.082c1.307 1.307 1.307 3.427 0 4.732-1.305 1.306-3.424 1.306-4.733 0-1.306-1.308-1.306-3.427 0-4.732 1.307-1.307 3.426-1.307 4.734 0zm11.377-11.362c.094-1.045 1.016-1.817 2.06-1.723l8.04.724c1.046.093 1.818 1.016 1.723 2.06-.094 1.047-1.016 1.817-2.06 1.723l-8.04-.722c-1.046-.094-1.818-1.018-1.723-2.06zm8.584 11.307c1.306 1.307 1.306 3.426 0 4.732-1.31 1.307-3.428 1.307-4.734 0-1.306-1.304-1.306-3.424 0-4.73 1.307-1.31 3.426-1.31 4.734 0z" id="Shape" stroke="#6D6E70" fill="#fff"/></g><g transform="translate(41 69) translate(18)"><circle fill="#865E5E" cx="55.5" cy="55.5" r="55.5"/><g id="Group" transform="translate(26 23)" fill="#fff"><circle id="Oval" cx="46.269" cy="7.519" r="7.519"/><path d="M30.235 47.436V45.58c0-1.502.732-2.953 1.933-3.88v-6.346h-6.942c-2.683 0-4.84-2.12-4.84-4.8 0-.438.198-.8.198-1.205v-1.72h.808c.89-1.288 2.275-1.93 3.834-1.93h6.363c.07-.323.257-.43.257-.685V7.79c0-1.437-1.328-2.69-2.763-2.69H7.64c-1.438 0-2.506 1.253-2.506 2.69v17.227c0 1.438 1.068 2.616 2.506 2.616h8.76v2.25h-2.946c-1.292 0-2.34.966-2.34 2.576H1.1c-.666 0-1.116.373-1.116 1.043v2.724c0 .665.448 1.058 1.117 1.058h3.39v24.46h28.32V50.727c.002 0-2.575-.545-2.575-3.292zM11.424 23.77c-1.436 0-2.75-1.026-2.75-2.46V11.5c0-1.437 1.314-2.535 2.75-2.535H25.37c1.437 0 2.615 1.098 2.615 2.536v9.81c0 1.434-1.176 2.46-2.615 2.46H11.423zM50.695 16.465h-9.95c-6.1 0-6.484 6.105-6.484 6.105s-.813 4.115-1.49 4.588c-.208.145-.453.25-.737.25H25.22c-1.612 0-2.917 1.282-2.917 2.896 0 1.612 1.305 2.897 2.917 2.897h6.813c1.058 0 1.99.003 2.117-.026l-.062 7.11h3.87v-15.73c0-3.17 2.04-6.8 5.242-6.8h11.864c-1.18-.968-2.71-1.29-4.37-1.29zM58.204 48.548c2.147 0 3.893-1.742 3.893-3.892V24.682c0-2.405-2.036-4.454-4.44-4.454h-13.48c-2.404 0-4.284 2.05-4.284 4.454v17.753h-4.346c-1.67 0-3.057 1.285-3.057 2.955v1.096c0 1.138.922 2.058 2.06 2.058h9.207v2.575h-1.475s-3.675.086-3.675 3.504v4.902c0 1.106.825 2.007 1.937 2.007 1.11 0 1.978-.91 1.978-2.017l-.03-4.534h6.734v4.544c0 1.106.98 2.007 2.09 2.007 1.115 0 2.093-.9 2.093-2.007v-4.902c0-3.714-3.946-3.505-3.946-3.505h-1.53v-2.574h10.27v.002z" id="Shape"/></g></g><g transform="translate(41 69) translate(265 237)"><circle fill="#865E5E" cx="55.5" cy="55.5" r="55.5"/><g transform="translate(25.065 18.5)" fill="#fff"><circle id="Oval" cx="20.1" cy="7.568" r="7.568"/><circle id="Oval" cx="39.794" cy="7.568" r="7.568"/><path d="M46.212 57.776c-.078.005-.155.01-.235.01-1.617 0-2.933-1.317-2.933-2.935 0-9.162 5.75-12.975 5.994-13.133.054-.035.11-.065.163-.093.003 0 .006-.003.008-.005l-.022-.105c-1.26-1.07-2.066-2.663-2.066-4.442 0-.857.19-1.667.523-2.4l-.31-1.3v-5.66c.654 1.363 1.163 3.074 1.462 5.278 1.057-1.076 2.53-1.746 4.154-1.746.533 0 1.05.078 1.54.213-1.375-8.463-5.558-11.797-9.836-14.42-.15-.092-.308-.163-.465-.225-.846-.558-1.792-.965-2.757-1.196l-.018-.003-1.828 1.918-1.885-1.897c-1.05.258-2.073.726-2.97 1.364-.025.015-.053.023-.08.04-1.676 1.027-3.338 2.165-4.82 3.676-1.48-1.575-3.185-2.807-4.95-3.89-.258-.16-.534-.26-.815-.33-.688-.385-1.43-.676-2.18-.86L20 17.53l-1.827-1.918-.02.003c-.963.23-1.908.64-2.753 1.196-.16.063-.316.134-.466.226-4.485 2.75-8.58 6.535-9.32 14.865.797-.418 1.702-.658 2.664-.658 1.178 0 2.273.357 3.186.965.14-1.466.41-2.71.792-3.777v4.415c1.098 1.05 1.786 2.525 1.786 4.16 0 1.47-.558 2.805-1.466 3.823.034.1.064.198.102.294-.02.153-.034.307-.034.464v.336c.027.022.057.044.084.067 1.062.787 5.625 4.643 5.625 12.753 0 1.604-1.305 2.91-2.91 2.91-.613 0-1.18-.19-1.653-.515-.02.05-.042.103-.065.154V71.39c0 .26-.034.512-.09.756.632.645 1.51 1.047 2.483 1.047 1.918 0 3.473-1.554 3.473-3.472l-.003-24.144c.137.007.274.017.413.017.027 0 .054-.003.08-.004v24.13c0 1.92 1.554 3.473 3.472 3.473s3.472-1.554 3.472-3.472l.002-27.96c.044-.084.087-.168.128-.254.043 0 .086.012.13.012h.04c.87-.012 1.644-.403 2.175-1.01.186.166.397.31.625.426-1.216 5.5-2.57 11.936-2.577 13.345-.006 1.154 2.076 2.143 5.013 2.766V69.72c0 1.92 1.556 3.473 3.473 3.473 1.918 0 3.473-1.554 3.473-3.472V57.75h.492l-.002 11.973c0 1.92 1.555 3.473 3.473 3.473 1.917 0 3.47-1.554 3.47-3.472l.002-5.786H45.12l1.092-6.158z" id="Shape"/><ellipse id="Oval" cx="8.606" cy="36.654" rx="4.429" ry="4.429"/><path d="M15.797 56.23c.87 0 1.575-.704 1.575-1.574 0-7.59-4.22-11.056-5.13-11.714-.306-.274-.703-.547-1.23-.834-.404-.226-.837-.395-1.277-.504l-1.104 1.11-1.07-1.123-.01.005c-.688.164-1.354.49-1.92.933-.047.024-.095.043-.14.072-.217.14-5.304 3.515-5.304 11.836 0 .87.704 1.575 1.575 1.575.87 0 1.575-.705 1.575-1.574 0-1.89.316-3.44.762-4.702v5.496c0 .462.09.894.248 1.29-.012.09-.02.18-.02.273v14.51c0 1.12.91 2.03 2.032 2.03 1.123 0 2.032-.91 2.032-2.03V59.127c.08.004.16.01.24.01.015 0 .032 0 .048-.002v12.167c0 1.122.91 2.03 2.03 2.03 1.124 0 2.033-.908 2.033-2.03l.002-14.41c.266-.492.422-1.05.422-1.663V49.2c.6 1.378 1.057 3.17 1.057 5.456.002.87.707 1.574 1.577 1.574z" id="Shape"/><ellipse cx="52.834" cy="36.721" rx="4.495" ry="4.495"/><path d="M56.67 43.098c-.308-.278-.71-.555-1.247-.848-.41-.228-.85-.4-1.296-.51l-1.12 1.127-1.085-1.14-.012.003c-.698.167-1.373.498-1.947.95-.05.023-.097.04-.143.07-.22.143-5.383 3.57-5.383 12.013 0 .883.715 1.598 1.598 1.598.882 0 1.598-.714 1.598-1.597 0-1.92.32-3.49.773-4.77v3.28l-1.633 9.238h1.864l.002 9.37c0 1.138.922 2.062 2.06 2.062 1.14 0 2.062-.924 2.062-2.063v-9.37h.293v9.37c0 1.138.923 2.062 2.062 2.062 1.14 0 2.062-.924 2.062-2.063v-9.37h2.05l-1.622-9.16v-3.9c.608 1.398 1.074 3.214 1.074 5.535 0 .883.714 1.598 1.6 1.598.88 0 1.596-.715 1.596-1.598 0-7.703-4.284-11.22-5.207-11.887z"/></g></g></g></g></svg>